# xmcd
# 
# Track frame offsets:
#     150
#     16045
#     33865
#     49159
#     66045
#     84113
#     103971
#     121010
#     134227
#     146091
#     162154
#     176076
# 
# Disc length: 2618
# 
# Revision: 1
# Processed by: cddbd v1.5.2PL0 Copyright (c) Steve Scherf et al.
# Submitted via: fre:ac v1.0.17
# 
DISCID=9d0a380c
DTITLE=Aurea -  Aurea
DYEAR=2010
DGENRE=Blues
TTITLE0=The Main Things About Me
TTITLE1=Busy (for me)
TTITLE2=Don't Ya Say It
TTITLE3=The Only Thing That I Wanted
TTITLE4=Okay Alright
TTITLE5=No No No No (I don't want to fall in love with you baby)
TTITLE6=Heading Back Home
TTITLE7=Dreaming Alive
TTITLE8=Tower of Strength
TTITLE9=Waiting, Waiting (for you)
TTITLE10=Be My Baby
TTITLE11=The Witch Song
EXTD=
EXTT0=
EXTT1=
EXTT2=
EXTT3=
EXTT4=
EXTT5=
EXTT6=
EXTT7=
EXTT8=
EXTT9=
EXTT10=
EXTT11=
PLAYORDER=
